<svg version="1.0" xmlns="http://www.w3.org/2000/svg" width="170.667" height="170.667" viewBox="0 0 128 128"><path d="M48.2 2C25.6 7.9 7.8 25.9 2 48.6c-8.7 33.8 12.4 68.7 46.6 77.4 33.8 8.7 68.7-12.4 77.4-46.6 5.6-21.7-.8-44.2-17-60.4C92.8 2.8 69.8-3.6 48.2 2zm27.9 3.4c7.9 1.7 16.1 5.1 18.3 7.5 1.3 1.4 1.4 2.4.6 4.8l-1.1 3-11.7.7-11.7.7-8.4-4c-4.5-2.2-8.8-4.2-9.4-4.4-1.7-.5.9-8.5 3.1-9 3.7-1 14-.6 20.3.7zM49 6.9c0 3.3-3.1 6.8-11.8 13.4-8.8 6.7-10.5 7.6-15.6 8.2-5.5.7-5.8.7-4.8-1.2 3-5.5 15.5-14.9 25.2-18.9 6.2-2.6 7-2.8 7-1.5zm52.4 28.8 6.9 10.2-4 9.8-3.9 9.8-5 .6c-2.7.4-7.7.9-11.2 1.2l-6.3.5-7.8-10.5-7.8-10.6 4.1-10.3 4.1-10.3 5.5-.4c3-.2 8.4-.3 12-.3l6.5.1 6.9 10.2zm-71.5 5.6 3.1 9.2L28.2 62l-4.7 11.4-6.9 1.4c-3.7.7-7 1.1-7.3.8-.3-.2-1.6-4.3-2.9-9L4 58.1l4.7-11.8c2.5-6.5 4.7-11.9 4.9-12.1.2-.4 8.8-1.9 11.6-2.1 1.2-.1 2.4 2.2 4.7 9.2zm88.8 7.3c1.5.4 2.7 2.1 3.7 5.2 2.7 7.9 1.8 19.8-2.5 31.4-2.1 5.6-2.3 5.8-5.8 5.8-2 0-4.1-.4-4.8-.8-.6-.4-2.1-5.5-3.4-11.4l-2.2-10.6 3.3-8.4c1.8-4.5 3.7-9.1 4.2-10.1.9-1.7 3.6-2.1 7.5-1.1zM66.4 59.2c4.2 5.7 7.6 10.7 7.6 11.3-.1.5-2 5.5-4.4 10.9-4.9 11.5-4.2 11.1-19.5 12.1l-9.9.7-6.1-9c-3.4-5-6.1-9.8-6.1-10.5 0-1.6 7.7-20.8 8.8-21.9.4-.4 5.2-1.3 10.7-2.1 5.5-.8 10.3-1.5 10.7-1.6.3-.1 4.1 4.5 8.2 10.1zM112.6 95c2.1 0 2.3.3 1.5 1.9-2.2 3.9-11.4 13.2-17.1 17-6.3 4.1-14.6 7.8-15.6 6.8-.4-.3.8-3 2.5-6 2.5-4.3 5.4-7.2 13.3-13.1 5.6-4.2 10.8-7.4 11.6-7.1.7.3 2.5.5 3.8.5zm-39.5 6.6c4.1 3 7.8 5.9 8.3 6.4.5.5-.6 3.4-2.5 6.8l-3.2 6-8.7 1.1c-15.2 1.9-15.2 1.9-25.2-5.7l-5.6-4.3 2.2-6.7 2.3-6.7 10.9-1.1c6-.6 11.6-1.2 12.5-1.2.8-.1 4.9 2.3 9 5.4zm-40.4 11.9c3.6 3.2 1.7 3.2-2.2 0-1.6-1.3-2.5-2.4-1.8-2.5.7 0 2.5 1.1 4 2.5z"/></svg>